PathFileType	4	(X/Y/Z)	C:/Users/beibeiliu/ov580/test_trc/User3\sequence.15_training_dense_right.trc
DataRate	CameraRate	NumFrames	NumMarkers	Units	OrigDataRate	OrigDataStartFrame	OrigNumFrames
120	120	16	19	mm	120	205	234
Frame#	Time	ThumbCMC			ThumbMCP			ThumbIP			ThumbTip			IndexMCP			IndexPIP			IndexTip			MiddleMCP			MiddlePIP			MiddleTip			RingMCP			RingPIP			RingTip			PinkyMCP			PinkyPIP			PinkyTip			BackHand1			BackHand2			BackHand3	
		X0	Y0	Z0	X1	Y1	Z1	X2	Y2	Z2	X3	Y3	Z3	X4	Y4	Z4	X5	Y5	Z5	X6	Y6	Z6	X7	Y7	Z7	X8	Y8	Z8	X9	Y9	Z9	X10	Y10	Z10	X11	Y11	Z11	X12	Y12	Z12	X13	Y13	Z13	X14	Y14	Z14	X15	Y15	Z15	X16	Y16	Z16	X17	Y17	Z17	X18	Y18	Z18	
204	1.7	116.064	-20.4441	34.4453	88.1632	-36.7139	25.5251	63.1997	-49.5805	14.2057	50.532	-67.9597	7.98942	93.6309	-60.1021	-30.5284	66.4662	-75.1456	-24.8922	53.7676	-91.7261	-0.61966	118.029	-73.8581	-41.4153	100.156	-89.5752	-56.7487	73.924	-106.135	-68.5111	136.18	-84.5059	-33.7099	128.992	-102.779	-51.614	114.152	-116.577	-68.1416	151.836	-96.1602	-10.1187	151.547	-116.075	-23.3445	149.557	-129.448	-37.7617	161.229	-56.213	4.8053	176.658	-44.4596	25.8318	147.186	-24.1047	9.99859	
205	1.70833	118.697	-16.3343	30.9195	88.2952	-23.6225	24.8856	64.3642	-37.2984	13.2583	50.3762	-56.2596	4.79767	91.8875	-54.7629	-29.732	63.3235	-67.2356	-23.6509	49.6124	-76.2498	-4.39691	116.594	-71.1495	-38.096	95.7492	-85.4492	-54.5725	66.8369	-104.179	-67.1371	133.045	-86.6943	-31.7773	121.486	-98.0219	-47.7865	105.1	-113.303	-63.2523	143.523	-94.7403	-6.91193	140.608	-113.96	-21.3887	136.558	-130.984	-36.9029	162.309	-59.8212	2.80545	176.231	-43.5599	25.9075	151.206	-25.2664	7.09598	
206	1.71667	123.232	-10.9483	26.6857	91.084	-17.7367	19.5488	64.0453	-26.6983	7.92467	48.467	-41.9318	1.61435	92.6787	-49.1835	-31.2157	63.8057	-56.4618	-25.5369	46.3092	-64.5537	-1.8598	114.982	-67.5811	-38.7136	93.1559	-81.6811	-54.8135	62.4255	-94.0243	-66.1923	128.228	-83.2602	-27.6004	112.689	-99.3072	-47.7758	95.3669	-114.445	-62.8336	137.011	-95.2253	-6.33594	128.646	-112.768	-22.1775	123.744	-129.071	-32.6007	158.077	-57.4839	1.99506	174.918	-50.5894	24.0115	152.559	-27.1265	6.19337	
207	1.725	129.678	-6.32719	26.2287	97.5449	-12.0485	16.0464	68.6474	-14.007	4.11145	50.7075	-27.3238	-0.91651	93.0274	-40.2601	-33.647	63.5788	-47.8645	-28.4476	46.7994	-49.2838	-5.93939	109.145	-65.9307	-42.7718	90.0678	-75.7517	-55.5004	57.4509	-84.6899	-67.9092	122.656	-80.45	-26.8281	104.348	-95.683	-47.445	88.4761	-106.301	-59.3198	129.976	-92.6718	-5.07652	120.787	-114.323	-18.3324	111.386	-126.467	-30.8667	157.924	-59.2611	1.55678	178.041	-52.7446	25.9181	158.344	-25.5673	5.18251	
208	1.73333	135.208	-3.57819	21.2728	103.898	-2.61941	14.0506	75.7155	-6.57934	0.137379	53.4513	-17.201	-7.85351	98.7248	-33.6453	-36.8545	68.7257	-34.4729	-34.6739	45.4296	-34.469	-7.67221	109.461	-61.1482	-44.4316	88.6482	-71.6372	-57.5113	58.3202	-77.2221	-68.361	119.186	-75.8736	-29.5987	102.854	-86.1411	-45.0963	81.2105	-99.138	-59.3647	123.138	-93.1351	-8.76741	114.202	-108.933	-15.2985	101.449	-121.313	-29.0418	155.323	-59.8577	1.78617	175.103	-55.2412	21.5717	159.341	-29.8101	0.264459	
209	1.74167	142.504	-0.602616	18.3544	109.52	-0.295536	9.25927	83.8645	0.00709554	-1.3377	59.1618	-9.6528	-9.34416	105.671	-30.4846	-39.0779	72.5181	-29.0231	-37.4773	52.2088	-24.5025	-18.615	112.769	-60.3748	-42.8155	88.1739	-67.3143	-59.5991	57.1601	-65.7914	-71.4946	118.046	-74.4992	-31.1311	96.4094	-87.1003	-49.3843	73.6816	-94.4225	-62.6328	119.871	-89.3562	-8.34698	105.395	-104.736	-20.5018	93.1805	-117.121	-29.8094	154.011	-66.3507	1.36669	173.574	-60.6284	24.26	163.386	-34.0176	0.586711	
210	1.75	151.013	-5.50933	17.1182	116.471	-0.513392	5.89772	88.7771	1.73824	-4.29763	68.5629	-2.95035	-7.0524	108.348	-28.4178	-42.809	79.9908	-24.1983	-42.2133	56.3135	-10.9707	-21.4794	111.977	-60.0143	-47.2546	90.0602	-58.572	-63.9263	61.0961	-59.2457	-73.1666	119.476	-73.1808	-29.8123	98.2506	-79.5601	-50.4229	76.5013	-84.2554	-64.2039	120.018	-85.8636	-4.28241	103.608	-99.0415	-18.8303	87.128	-110.124	-29.8837	155.866	-63.3699	1.57758	177.623	-61.5261	24.385	170.377	-34.4619	-0.632747	
211	1.75833	156.415	-1.66372	12.9323	125.446	8.8211	5.85942	95.6592	10.9011	-6.14893	71.175	2.17768	-9.75931	111.848	-26.2681	-44.506	84.3053	-17.0313	-44.2721	63.3099	-2.91466	-23.6955	117.648	-55.4497	-46.7329	93.3618	-56.2103	-62.0998	63.3181	-52.7678	-74.5383	118.055	-70.4406	-33.7785	98.6577	-80.1823	-49.8522	75.4751	-82.9901	-63.3284	117.531	-85.2288	-6.4196	104.424	-93.4101	-16.9177	83.9153	-107.513	-29.8547	156.321	-65.4917	-0.762329	175.45	-65.1183	26.4774	172.99	-39.2655	-2.90514	
212	1.76667	161.626	-2.35605	9.84734	132.227	6.34144	4.46132	102.858	15.2053	-7.87084	77.1923	6.6424	-11.7833	117.42	-24.1798	-46.0451	91.7271	-12.9997	-45.5836	69.7807	2.97743	-26.671	116.411	-56.0017	-48.979	96.1344	-51.7707	-63.1967	65.6362	-48.4436	-74.8003	117.004	-73.6671	-32.9805	98.9427	-75.6154	-51.5811	76.1857	-78.2014	-65.0847	115.318	-84.032	-6.89649	99.7486	-93.2829	-18.6707	80.8711	-103.124	-28.7554	158.519	-67.2811	0.62969	175.463	-64.49	22.6364	176.582	-39.2326	-3.19382	
213	1.775	169.08	-5.3613	10.3857	137.859	9.6279	-2.00961	110.508	16.7499	-12.088	84.8167	10.5085	-17.3886	125.165	-23.1879	-45.633	97.2032	-8.86442	-47.1267	75.8571	8.71979	-28.8276	121.823	-53.872	-47.3018	97.4625	-50.8404	-65.3624	64.5556	-44.7621	-77.1698	120.075	-68.2117	-35.1346	101.363	-73.2261	-49.8259	77.0718	-72.5465	-68.5722	116.028	-79.627	-6.41603	97.4055	-89.7678	-16.5333	81.8894	-95.6977	-29.0377	160.754	-69.1252	2.89907	178.452	-68.608	26.0746	182.667	-41.1329	-1.24758	
214	1.78333	176.898	-5.75495	9.23323	149.357	7.254	-1.98001	121.975	20.1436	-18.4301	99.0907	20.6417	-23.1282	129.24	-21.8718	-48.4586	102.939	-7.60129	-49.2389	84.7795	12.041	-33.4146	125.178	-51.0903	-50.98	102.365	-50.3864	-65.9885	74.2787	-37.954	-82.8543	122.218	-67.3405	-36.4411	102.43	-72.0186	-53.5423	81.312	-71.8015	-67.5057	114.372	-78.939	-6.7515	96.0396	-84.3384	-19.7973	79.5061	-91.5324	-30.221	157.906	-71.9346	-0.20349	177.067	-73.6881	23.6012	183.158	-45.8332	-0.739706	
215	1.79167	180.43	-8.94168	6.43325	154.171	6.3869	-9.32449	132.732	17.8465	-23.1087	109.767	22.2213	-32.8664	132.946	-24.558	-51.7088	108.655	-5.57931	-55.3306	91.7892	12.2619	-39.9285	129.405	-50.6906	-55.8265	109.478	-48.997	-71.7049	80.7735	-39.7711	-88.9684	123.005	-69.312	-35.9805	105.844	-69.6963	-58	87.7398	-68.635	-71.4704	115.926	-76.7574	-11.076	98.158	-83.2545	-18.3878	83.1702	-89.7524	-29.92	161.922	-70.5175	0.12098	178.721	-72.2015	23.478	187.566	-46.7553	-5.4967	
216	1.8	185.468	-8.9233	4.11901	159.878	3.60868	-11.55	137.287	13.5709	-30.6277	117.198	19.3293	-43.1397	143.725	-27.1093	-56.6111	118.561	-10.1359	-63.13	98.6014	8.98392	-50.2986	139.294	-53.4752	-55.8447	115.246	-50.9238	-78.8712	96.1869	-39.9526	-99.1389	129.386	-68.454	-42.1164	113.37	-71.2803	-58.4797	93.086	-69.0049	-80.0069	118.742	-75.8573	-13.3275	100.798	-80.2618	-26.7529	80.7305	-89.6883	-35.8681	164.229	-71.6097	-3.72696	177.583	-74.7712	22.6949	189.883	-49.4744	-0.611715	
217	1.80833	188.571	-11.4621	3.75327	166.346	3.19404	-16.5132	144.903	12.0526	-39.8708	125.856	13.041	-49.1003	155.516	-31.2698	-63.2382	130.591	-13.6157	-73.9399	109.117	5.89365	-63.4672	145.416	-59.7244	-62.1761	128.794	-57.4901	-84.1328	107.544	-49.1386	-108.946	136.45	-71.4315	-45.8285	120.117	-75.5867	-64.4258	105.923	-73.6333	-86.1079	123.737	-77.996	-16.7983	106.918	-83.3168	-29.3768	92.0477	-89.5765	-43.6553	166.582	-72.1937	-0.391614	179.247	-74.7397	22.6083	193.455	-50.9399	-2.62198	
218	1.81667	191.977	-13.5709	1.76332	169.516	-1.40447	-22.7896	151.852	6.93019	-47.8392	134.364	8.84551	-61.4282	166.254	-37.4059	-66.6793	142.774	-20.7067	-81.9511	118.587	-1.84081	-75.2746	159.873	-63.5151	-65.2965	143.078	-64.8287	-90.5684	125.892	-58.9116	-117.314	145.192	-75.2161	-49.9788	132.981	-81.2734	-67.1057	118.373	-80.1897	-90.8674	133.016	-79.1801	-22.8701	115.292	-87.6461	-32.6081	98.4177	-91.9426	-53.7201	174.325	-74.8523	-0.84083	184.847	-72.7567	24.1638	197.335	-54.3834	-1.99646	
219	1.825	194.213	-15.3905	1.81449	176.507	-2.71319	-26.7549	160.834	0.544033	-54.0359	143.532	0.43619	-69.0805	176.537	-46.2131	-66.2982	154.121	-30.8052	-87.0753	134.592	-11.4904	-86.4143	171.79	-71.4238	-67.3895	160.793	-71.977	-91.6711	147.631	-67.3921	-120.4	154.73	-82.0893	-51.2246	146.996	-85.277	-73.1961	135.345	-87.1525	-98.1215	139.716	-84.6333	-29.1496	126.358	-90.4025	-40.6952	109.286	-96.8788	-57.522	176.889	-76.4303	-1.42485	185.597	-71.611	25.1498	203.594	-52.0838	1.90468	
